<svg xmlns="http://www.w3.org/2000/svg" xmlns:xlink="http://www.w3.org/1999/xlink" width="651" zoomAndPan="magnify" viewBox="0 0 488.25 157.5" height="210" preserveAspectRatio="xMidYMid meet" version="1.0"><defs><g/><clipPath id="0c48e8b99d"><path d="M 326.601562 2.351562 L 479.894531 2.351562 L 479.894531 44.933594 L 326.601562 44.933594 Z M 326.601562 2.351562 " clip-rule="nonzero"/></clipPath><clipPath id="47c62e4876"><path d="M 334.078125 2.351562 L 472.226562 2.351562 C 476.355469 2.351562 479.703125 5.699219 479.703125 9.828125 L 479.703125 37.328125 C 479.703125 41.457031 476.355469 44.804688 472.226562 44.804688 L 334.078125 44.804688 C 329.949219 44.804688 326.601562 41.457031 326.601562 37.328125 L 326.601562 9.828125 C 326.601562 5.699219 329.949219 2.351562 334.078125 2.351562 " clip-rule="nonzero"/></clipPath></defs><g fill="#ffffff" fill-opacity="1"><g transform="translate(8.591756, 132.507002)"><g><path d="M 71.390625 0 L 52.640625 0 L 52.640625 -40.15625 C 52.640625 -45.113281 51.804688 -48.832031 50.140625 -51.3125 C 48.484375 -53.789062 45.875 -55.03125 42.3125 -55.03125 C 37.507812 -55.03125 34.019531 -53.265625 31.84375 -49.734375 C 29.675781 -46.210938 28.59375 -40.414062 28.59375 -32.34375 L 28.59375 0 L 9.84375 0 L 9.84375 -68.75 L 24.171875 -68.75 L 26.6875 -59.953125 L 27.734375 -59.953125 C 29.578125 -63.109375 32.238281 -65.578125 35.71875 -67.359375 C 39.207031 -69.148438 43.207031 -70.046875 47.71875 -70.046875 C 58.007812 -70.046875 64.976562 -66.679688 68.625 -59.953125 L 70.28125 -59.953125 C 72.125 -63.148438 74.835938 -65.628906 78.421875 -67.390625 C 82.015625 -69.160156 86.066406 -70.046875 90.578125 -70.046875 C 98.367188 -70.046875 104.257812 -68.046875 108.25 -64.046875 C 112.25 -60.046875 114.25 -53.640625 114.25 -44.828125 L 114.25 0 L 95.4375 0 L 95.4375 -40.15625 C 95.4375 -45.113281 94.601562 -48.832031 92.9375 -51.3125 C 91.28125 -53.789062 88.671875 -55.03125 85.109375 -55.03125 C 80.515625 -55.03125 77.078125 -53.390625 74.796875 -50.109375 C 72.523438 -46.835938 71.390625 -41.632812 71.390625 -34.5 Z M 71.390625 0 "/></g></g></g><g fill="#ffffff" fill-opacity="1"><g transform="translate(132.24503, 132.507002)"><g><path d="M 38.3125 -56.703125 C 34.332031 -56.703125 31.210938 -55.441406 28.953125 -52.921875 C 26.703125 -50.398438 25.414062 -46.820312 25.09375 -42.1875 L 51.40625 -42.1875 C 51.320312 -46.820312 50.113281 -50.398438 47.78125 -52.921875 C 45.445312 -55.441406 42.289062 -56.703125 38.3125 -56.703125 Z M 40.953125 1.234375 C 29.878906 1.234375 21.226562 -1.816406 15 -7.921875 C 8.769531 -14.035156 5.65625 -22.6875 5.65625 -33.875 C 5.65625 -45.394531 8.535156 -54.300781 14.296875 -60.59375 C 20.054688 -66.894531 28.019531 -70.046875 38.1875 -70.046875 C 47.90625 -70.046875 55.46875 -67.273438 60.875 -61.734375 C 66.289062 -56.203125 69 -48.554688 69 -38.796875 L 69 -29.703125 L 24.65625 -29.703125 C 24.863281 -24.367188 26.441406 -20.207031 29.390625 -17.21875 C 32.347656 -14.226562 36.488281 -12.734375 41.8125 -12.734375 C 45.957031 -12.734375 49.875 -13.160156 53.5625 -14.015625 C 57.25 -14.878906 61.101562 -16.253906 65.125 -18.140625 L 65.125 -3.625 C 61.84375 -1.988281 58.335938 -0.769531 54.609375 0.03125 C 50.878906 0.832031 46.328125 1.234375 40.953125 1.234375 Z M 40.953125 1.234375 "/></g></g></g><g fill="#ffffff" fill-opacity="1"><g transform="translate(206.646056, 132.507002)"><g><path d="M 73.296875 0 L 54.546875 0 L 54.546875 -40.15625 C 54.546875 -45.113281 53.660156 -48.832031 51.890625 -51.3125 C 50.128906 -53.789062 47.320312 -55.03125 43.46875 -55.03125 C 38.226562 -55.03125 34.4375 -53.273438 32.09375 -49.765625 C 29.757812 -46.265625 28.59375 -40.457031 28.59375 -32.34375 L 28.59375 0 L 9.84375 0 L 9.84375 -68.75 L 24.171875 -68.75 L 26.6875 -59.953125 L 27.734375 -59.953125 C 29.828125 -63.273438 32.707031 -65.785156 36.375 -67.484375 C 40.039062 -69.191406 44.210938 -70.046875 48.890625 -70.046875 C 56.878906 -70.046875 62.941406 -67.878906 67.078125 -63.546875 C 71.222656 -59.222656 73.296875 -52.984375 73.296875 -44.828125 Z M 73.296875 0 "/></g></g></g><g fill="#ffffff" fill-opacity="1"><g transform="translate(289.40951, 132.507002)"><g><path d="M 38.796875 -13.71875 C 42.078125 -13.71875 46.015625 -14.429688 50.609375 -15.859375 L 50.609375 -1.90625 C 45.929688 0.1875 40.191406 1.234375 33.390625 1.234375 C 25.890625 1.234375 20.425781 -0.660156 17 -4.453125 C 13.582031 -8.242188 11.875 -13.929688 11.875 -21.515625 L 11.875 -54.671875 L 2.890625 -54.671875 L 2.890625 -62.59375 L 13.21875 -68.875 L 18.625 -83.390625 L 30.625 -83.390625 L 30.625 -68.75 L 49.875 -68.75 L 49.875 -54.671875 L 30.625 -54.671875 L 30.625 -21.515625 C 30.625 -18.859375 31.367188 -16.894531 32.859375 -15.625 C 34.359375 -14.351562 36.335938 -13.71875 38.796875 -13.71875 Z M 38.796875 -13.71875 "/></g></g></g><g fill="#ffffff" fill-opacity="1"><g transform="translate(344.072743, 132.507002)"><g><path d="M 24.78125 -34.5 C 24.78125 -27.695312 25.894531 -22.550781 28.125 -19.0625 C 30.363281 -15.570312 34.003906 -13.828125 39.046875 -13.828125 C 44.046875 -13.828125 47.640625 -15.5625 49.828125 -19.03125 C 52.023438 -22.5 53.125 -27.65625 53.125 -34.5 C 53.125 -41.300781 52.015625 -46.398438 49.796875 -49.796875 C 47.585938 -53.203125 43.960938 -54.90625 38.921875 -54.90625 C 33.921875 -54.90625 30.3125 -53.210938 28.09375 -49.828125 C 25.882812 -46.453125 24.78125 -41.34375 24.78125 -34.5 Z M 72.3125 -34.5 C 72.3125 -23.300781 69.359375 -14.546875 63.453125 -8.234375 C 57.554688 -1.921875 49.335938 1.234375 38.796875 1.234375 C 32.203125 1.234375 26.382812 -0.207031 21.34375 -3.09375 C 16.300781 -5.988281 12.425781 -10.140625 9.71875 -15.546875 C 7.007812 -20.960938 5.65625 -27.28125 5.65625 -34.5 C 5.65625 -45.726562 8.585938 -54.457031 14.453125 -60.6875 C 20.316406 -66.925781 28.554688 -70.046875 39.171875 -70.046875 C 45.773438 -70.046875 51.597656 -68.609375 56.640625 -65.734375 C 61.679688 -62.867188 65.550781 -58.75 68.25 -53.375 C 70.957031 -48 72.3125 -41.707031 72.3125 -34.5 Z M 72.3125 -34.5 "/></g></g></g><g fill="#ffffff" fill-opacity="1"><g transform="translate(422.040098, 132.507002)"><g><path d="M 48.203125 -70.046875 C 50.742188 -70.046875 52.859375 -69.859375 54.546875 -69.484375 L 53.125 -51.90625 C 51.613281 -52.3125 49.769531 -52.515625 47.59375 -52.515625 C 41.613281 -52.515625 36.953125 -50.976562 33.609375 -47.90625 C 30.265625 -44.832031 28.59375 -40.523438 28.59375 -34.984375 L 28.59375 0 L 9.84375 0 L 9.84375 -68.75 L 24.046875 -68.75 L 26.8125 -57.1875 L 27.734375 -57.1875 C 29.867188 -61.039062 32.75 -64.144531 36.375 -66.5 C 40 -68.863281 43.941406 -70.046875 48.203125 -70.046875 Z M 48.203125 -70.046875 "/></g></g></g><g clip-path="url(#0c48e8b99d)"><g clip-path="url(#47c62e4876)"><path fill="#00518d" d="M 326.601562 2.351562 L 479.894531 2.351562 L 479.894531 44.933594 L 326.601562 44.933594 Z M 326.601562 2.351562 " fill-opacity="1" fill-rule="nonzero"/></g></g><g fill="#ffffff" fill-opacity="1"><g transform="translate(342.416466, 28.622612)"><g><path d="M 6.390625 0.203125 C 2.765625 0.203125 0.953125 -1.78125 0.953125 -5.75 C 0.953125 -7.726562 1.441406 -9.238281 2.421875 -10.28125 C 3.410156 -11.320312 4.828125 -11.84375 6.671875 -11.84375 C 8.015625 -11.84375 9.21875 -11.578125 10.28125 -11.046875 L 9.34375 -8.59375 C 8.84375 -8.800781 8.378906 -8.96875 7.953125 -9.09375 C 7.523438 -9.21875 7.097656 -9.28125 6.671875 -9.28125 C 5.015625 -9.28125 4.1875 -8.109375 4.1875 -5.765625 C 4.1875 -3.492188 5.015625 -2.359375 6.671875 -2.359375 C 7.273438 -2.359375 7.835938 -2.4375 8.359375 -2.59375 C 8.878906 -2.757812 9.398438 -3.019531 9.921875 -3.375 L 9.921875 -0.65625 C 9.410156 -0.332031 8.890625 -0.109375 8.359375 0.015625 C 7.835938 0.140625 7.179688 0.203125 6.390625 0.203125 Z M 6.390625 0.203125 "/></g></g></g><g fill="#ffffff" fill-opacity="1"><g transform="translate(353.36348, 28.622612)"><g><path d="M 12.390625 0 L 9.21875 0 L 9.21875 -6.796875 C 9.21875 -8.472656 8.597656 -9.3125 7.359375 -9.3125 C 6.460938 -9.3125 5.816406 -9.007812 5.421875 -8.40625 C 5.023438 -7.800781 4.828125 -6.820312 4.828125 -5.46875 L 4.828125 0 L 1.65625 0 L 1.65625 -16.1875 L 4.828125 -16.1875 L 4.828125 -12.890625 C 4.828125 -12.628906 4.804688 -12.023438 4.765625 -11.078125 L 4.6875 -10.140625 L 4.859375 -10.140625 C 5.566406 -11.273438 6.6875 -11.84375 8.21875 -11.84375 C 9.59375 -11.84375 10.628906 -11.472656 11.328125 -10.734375 C 12.035156 -10.003906 12.390625 -8.953125 12.390625 -7.578125 Z M 12.390625 0 "/></g></g></g><g fill="#ffffff" fill-opacity="1"><g transform="translate(367.356521, 28.622612)"><g><path d="M 9.046875 0 L 8.4375 -1.578125 L 8.34375 -1.578125 C 7.8125 -0.910156 7.265625 -0.445312 6.703125 -0.1875 C 6.140625 0.0703125 5.40625 0.203125 4.5 0.203125 C 3.375 0.203125 2.488281 -0.113281 1.84375 -0.75 C 1.207031 -1.382812 0.890625 -2.289062 0.890625 -3.46875 C 0.890625 -4.707031 1.320312 -5.617188 2.1875 -6.203125 C 3.050781 -6.785156 4.351562 -7.109375 6.09375 -7.171875 L 8.109375 -7.234375 L 8.109375 -7.75 C 8.109375 -8.925781 7.503906 -9.515625 6.296875 -9.515625 C 5.367188 -9.515625 4.28125 -9.234375 3.03125 -8.671875 L 1.96875 -10.8125 C 3.3125 -11.507812 4.796875 -11.859375 6.421875 -11.859375 C 7.984375 -11.859375 9.179688 -11.519531 10.015625 -10.84375 C 10.847656 -10.164062 11.265625 -9.132812 11.265625 -7.75 L 11.265625 0 Z M 8.109375 -5.390625 L 6.890625 -5.34375 C 5.960938 -5.3125 5.273438 -5.144531 4.828125 -4.84375 C 4.378906 -4.539062 4.15625 -4.078125 4.15625 -3.453125 C 4.15625 -2.554688 4.664062 -2.109375 5.6875 -2.109375 C 6.425781 -2.109375 7.015625 -2.316406 7.453125 -2.734375 C 7.890625 -3.160156 8.109375 -3.726562 8.109375 -4.4375 Z M 8.109375 -5.390625 "/></g></g></g><g fill="#ffffff" fill-opacity="1"><g transform="translate(380.216403, 28.622612)"><g><path d="M 6.5625 -2.3125 C 7.113281 -2.3125 7.78125 -2.4375 8.5625 -2.6875 L 8.5625 -0.328125 C 7.769531 0.0234375 6.796875 0.203125 5.640625 0.203125 C 4.378906 0.203125 3.457031 -0.113281 2.875 -0.75 C 2.289062 -1.394531 2 -2.359375 2 -3.640625 L 2 -9.25 L 0.484375 -9.25 L 0.484375 -10.59375 L 2.234375 -11.640625 L 3.15625 -14.09375 L 5.171875 -14.09375 L 5.171875 -11.625 L 8.4375 -11.625 L 8.4375 -9.25 L 5.171875 -9.25 L 5.171875 -3.640625 C 5.171875 -3.191406 5.296875 -2.859375 5.546875 -2.640625 C 5.804688 -2.421875 6.144531 -2.3125 6.5625 -2.3125 Z M 6.5625 -2.3125 "/></g></g></g><g fill="#ffffff" fill-opacity="1"><g transform="translate(389.45847, 28.622612)"><g><path d="M 4.4375 0 L 0 -11.625 L 3.3125 -11.625 L 5.5625 -5 C 5.789062 -4.28125 5.941406 -3.488281 6.015625 -2.625 L 6.09375 -2.625 C 6.132812 -3.40625 6.289062 -4.195312 6.5625 -5 L 8.796875 -11.625 L 12.109375 -11.625 L 7.6875 0 Z M 4.4375 0 "/></g></g></g><g fill="#ffffff" fill-opacity="1"><g transform="translate(401.569839, 28.622612)"><g><path d="M 12.390625 0 L 9.21875 0 L 9.21875 -6.796875 C 9.21875 -7.628906 9.066406 -8.253906 8.765625 -8.671875 C 8.472656 -9.097656 8.003906 -9.3125 7.359375 -9.3125 C 6.460938 -9.3125 5.816406 -9.015625 5.421875 -8.421875 C 5.023438 -7.828125 4.828125 -6.84375 4.828125 -5.46875 L 4.828125 0 L 1.65625 0 L 1.65625 -11.625 L 4.09375 -11.625 L 4.515625 -10.140625 L 4.6875 -10.140625 C 5.039062 -10.703125 5.523438 -11.125 6.140625 -11.40625 C 6.765625 -11.695312 7.472656 -11.84375 8.265625 -11.84375 C 9.617188 -11.84375 10.644531 -11.476562 11.34375 -10.75 C 12.039062 -10.019531 12.390625 -8.960938 12.390625 -7.578125 Z M 12.390625 0 "/></g></g></g><g fill="#ffffff" fill-opacity="1"><g transform="translate(415.562879, 28.622612)"><g><path d="M 1.21875 -1.484375 C 1.21875 -2.066406 1.375 -2.503906 1.6875 -2.796875 C 2 -3.097656 2.453125 -3.25 3.046875 -3.25 C 3.617188 -3.25 4.0625 -3.097656 4.375 -2.796875 C 4.695312 -2.492188 4.859375 -2.054688 4.859375 -1.484375 C 4.859375 -0.941406 4.695312 -0.507812 4.375 -0.1875 C 4.0625 0.125 3.617188 0.28125 3.046875 0.28125 C 2.460938 0.28125 2.007812 0.128906 1.6875 -0.171875 C 1.375 -0.484375 1.21875 -0.921875 1.21875 -1.484375 Z M 1.21875 -1.484375 "/></g></g></g><g fill="#ffffff" fill-opacity="1"><g transform="translate(421.634154, 28.622612)"><g><path d="M 4.1875 -5.828125 C 4.1875 -4.679688 4.375 -3.8125 4.75 -3.21875 C 5.132812 -2.632812 5.753906 -2.34375 6.609375 -2.34375 C 7.453125 -2.34375 8.054688 -2.632812 8.421875 -3.21875 C 8.796875 -3.800781 8.984375 -4.671875 8.984375 -5.828125 C 8.984375 -6.984375 8.796875 -7.847656 8.421875 -8.421875 C 8.046875 -8.992188 7.429688 -9.28125 6.578125 -9.28125 C 5.734375 -9.28125 5.125 -8.992188 4.75 -8.421875 C 4.375 -7.859375 4.1875 -6.992188 4.1875 -5.828125 Z M 12.234375 -5.828125 C 12.234375 -3.941406 11.734375 -2.460938 10.734375 -1.390625 C 9.734375 -0.328125 8.34375 0.203125 6.5625 0.203125 C 5.445312 0.203125 4.460938 -0.0390625 3.609375 -0.53125 C 2.753906 -1.019531 2.097656 -1.71875 1.640625 -2.625 C 1.179688 -3.539062 0.953125 -4.609375 0.953125 -5.828125 C 0.953125 -7.734375 1.445312 -9.210938 2.4375 -10.265625 C 3.4375 -11.316406 4.832031 -11.84375 6.625 -11.84375 C 7.738281 -11.84375 8.722656 -11.597656 9.578125 -11.109375 C 10.429688 -10.628906 11.085938 -9.929688 11.546875 -9.015625 C 12.003906 -8.109375 12.234375 -7.046875 12.234375 -5.828125 Z M 12.234375 -5.828125 "/></g></g></g><g fill="#ffffff" fill-opacity="1"><g transform="translate(434.816305, 28.622612)"><g><path d="M 8.15625 -11.84375 C 8.582031 -11.84375 8.9375 -11.8125 9.21875 -11.75 L 8.984375 -8.78125 C 8.722656 -8.84375 8.410156 -8.875 8.046875 -8.875 C 7.035156 -8.875 6.242188 -8.613281 5.671875 -8.09375 C 5.109375 -7.582031 4.828125 -6.859375 4.828125 -5.921875 L 4.828125 0 L 1.65625 0 L 1.65625 -11.625 L 4.0625 -11.625 L 4.53125 -9.671875 L 4.6875 -9.671875 C 5.050781 -10.328125 5.539062 -10.851562 6.15625 -11.25 C 6.769531 -11.644531 7.4375 -11.84375 8.15625 -11.84375 Z M 8.15625 -11.84375 "/></g></g></g><g fill="#ffffff" fill-opacity="1"><g transform="translate(444.484602, 28.622612)"><g><path d="M 6.484375 -2.28125 C 7.328125 -2.28125 7.929688 -2.523438 8.296875 -3.015625 C 8.671875 -3.503906 8.859375 -4.296875 8.859375 -5.390625 L 8.859375 -5.765625 C 8.859375 -7.003906 8.664062 -7.894531 8.28125 -8.4375 C 7.894531 -8.988281 7.273438 -9.265625 6.421875 -9.265625 C 4.929688 -9.265625 4.1875 -8.09375 4.1875 -5.75 C 4.1875 -4.582031 4.367188 -3.710938 4.734375 -3.140625 C 5.109375 -2.566406 5.691406 -2.28125 6.484375 -2.28125 Z M 11.828125 0.015625 C 11.828125 1.691406 11.335938 2.957031 10.359375 3.8125 C 9.390625 4.675781 7.941406 5.109375 6.015625 5.109375 C 4.316406 5.109375 2.863281 4.882812 1.65625 4.4375 L 1.65625 1.890625 C 3.070312 2.484375 4.585938 2.78125 6.203125 2.78125 C 7.828125 2.78125 8.640625 1.898438 8.640625 0.140625 L 8.640625 -0.078125 L 8.734375 -1.515625 L 8.640625 -1.515625 C 7.898438 -0.367188 6.800781 0.203125 5.34375 0.203125 C 3.945312 0.203125 2.863281 -0.332031 2.09375 -1.40625 C 1.332031 -2.476562 0.953125 -3.941406 0.953125 -5.796875 C 0.953125 -7.703125 1.347656 -9.1875 2.140625 -10.25 C 2.941406 -11.3125 4.035156 -11.84375 5.421875 -11.84375 C 6.859375 -11.84375 7.984375 -11.273438 8.796875 -10.140625 L 8.875 -10.140625 L 9.140625 -11.625 L 11.828125 -11.625 Z M 11.828125 0.015625 "/></g></g></g></svg>